Coordinates
version=1
nRows=10
nColumns=34
inDegrees=yes

Units are S.I. units (second, meters, Newtons, ...)
If the header above contains a line with 'inDegrees', this indicates whether rotational values are in degrees (yes) or radians (no).

endheader
time	pelvis_tilt	pelvis_list	pelvis_rotation	pelvis_tx	pelvis_ty	pelvis_tz	hip_flexion_r	hip_adduction_r	hip_rotation_r	knee_angle_r	ankle_angle_r	subtalar_angle_r	mtp_angle_r	hip_flexion_l	hip_adduction_l	hip_rotation_l	knee_angle_l	ankle_angle_l	subtalar_angle_l	mtp_angle_l	lumbar_extension	lumbar_bending	lumbar_rotation	arm_flex_r	arm_add_r	arm_rot_r	elbow_flex_r	pro_sup_r	arm_flex_l	arm_add_l	arm_rot_l	elbow_flex_l	pro_sup_l
      3.06666670	     -3.28045504	      2.15848980	     -0.16603396	      1.67691901	      0.87201913	     -0.08601671	     -1.78214125	     -5.90255687	      2.57922987	      0.00000000	      1.47537874	    -22.95791934	      0.00000000	     -2.19881852	     -3.60581713	     -1.06846977	      0.44730121	      4.94379807	     -2.81812004	      0.00000000	     -2.49243327	     -0.06399969	      0.42630903	      7.22606359	     -8.77005554	     33.41522677	     86.85864741	     85.32012277	      7.16057999	     -8.02437940	     32.19717335	     82.49285785	     84.99166399
      3.08333330	     -3.31220509	      2.19826036	     -0.05998704	      1.67712025	      0.87208938	     -0.08614537	     -1.79910188	     -5.94489532	      2.63525137	      0.00000000	      1.47114623	    -22.94619575	      0.00000000	     -2.11147719	     -3.57654683	     -1.01448134	      0.51823327	      4.93640715	     -2.79938283	      0.00000000	     -2.49432147	     -0.08241902	      0.45193631	      7.17247984	     -8.67795803	     33.53797680	     86.90682401	     85.30585853	      7.24936215	     -8.11396751	     32.19135993	     82.47723794	     84.98320508
      3.10000000	     -3.31395601	      2.19861321	     -0.06253181	      1.67715330	      0.87198723	     -0.08620883	     -1.80081133	     -5.94544778	      2.63488962	      0.00000000	      1.47124478	    -22.94646755	      0.00000000	     -2.11067933	     -3.57711149	     -1.01387853	      0.51867009	      4.93633593	     -2.79916051	      0.00000000	     -2.49451906	     -0.08298788	      0.45131668	      7.17229379	     -8.67789602	     33.53854828	     86.90711195	     85.30573233	      7.24995941	     -8.11411073	     32.19162401	     82.47713102	     84.98315233
      3.11666670	     -3.32947989	      2.19094736	     -0.07711176	      1.67731846	      0.87185167	     -0.08633808	     -1.81165810	     -5.95541890	      2.63207869	      0.00000000	      1.47223252	    -22.94867779	      0.00000000	     -2.10678655	     -3.57426573	     -1.00964182	      0.52154346	      4.93627815	     -2.79764174	      0.00000000	     -2.49518921	     -0.08607568	      0.44741973	      7.17139382	     -8.67715355	     33.54311671	     86.90965773	     85.30479745	      7.25420969	     -8.11459832	     32.19389607	     82.47660722	     84.98276838
      3.13333330	     -3.33282858	      2.19155120	     -0.07851050	      1.67728138	      0.87207842	     -0.08640342	     -1.81268578	     -5.95568187	      2.63171066	      0.00000000	      1.47241861	    -22.94900578	      0.00000000	     -2.10714167	     -3.57387505	     -1.00924196	      0.52192838	      4.93641722	     -2.79755194	      0.00000000	     -2.49500554	     -0.08631023	      0.44713610	      7.17137642	     -8.67701813	     33.54368309	     86.91002260	     85.30468706	      7.25467560	     -8.11464837	     32.19416997	     82.47661961	     84.98272306
      3.15000000	     -3.33656909	      2.18665953	     -0.08044037	      1.67728436	      0.87244389	     -0.08642637	     -1.81374219	     -5.95743686	      2.63096056	      0.00000000	      1.47281891	    -22.94963941	      0.00000000	     -2.10625350	     -3.56880812	     -1.00852054	      0.52154302	      4.93681245	     -2.79735028	      0.00000000	     -2.49480865	     -0.08649650	      0.44685984	      7.17149178	     -8.67671021	     33.54475620	     86.91066853	     85.30448455	      7.25567202	     -8.11481757	     32.19458632	     82.47668289	     84.98263450
      3.16666670	     -3.34020417	      2.17942342	     -0.08049318	      1.67722263	      0.87265779	     -0.08629796	     -1.81389714	     -5.95935678	      2.63039436	      0.00000000	      1.47311766	    -22.95006888	      0.00000000	     -2.10686768	     -3.56192506	     -1.00810778	      0.52155476	      4.93717950	     -2.79723740	      0.00000000	     -2.49476999	     -0.08621570	      0.44675588	      7.17149284	     -8.67647169	     33.54566302	     86.91111453	     85.30433296	      7.25645374	     -8.11494174	     32.19487659	     82.47673410	     84.98256474
      3.18333330	     -3.34281657	      2.17138276	     -0.07933053	      1.67708376	      0.87255522	     -0.08601924	     -1.81322330	     -5.96045286	      2.62987176	      0.00000000	      1.47334007	    -22.95035896	      0.00000000	     -2.10835401	     -3.55324500	     -1.00783530	      0.52178852	      4.93750078	     -2.79712945	      0.00000000	     -2.49500331	     -0.08548701	      0.44666655	      7.17126368	     -8.67631480	     33.54660201	     86.91141180	     85.30419841	      7.25709639	     -8.11500402	     32.19515739	     82.47671019	     84.98250077
      3.20000000	     -3.41500303	      2.23547339	     -0.13052342	      1.67675244	      0.87214843	     -0.08558042	     -1.68967416	     -6.02359154	      2.57804335	      0.00000000	      1.49593865	    -22.98277488	      0.00000000	     -2.06946644	     -3.45793465	     -0.98579619	      0.44366332	      4.97099967	     -2.79631487	      0.00000000	     -2.55293358	     -0.04366139	      0.46313915	      7.15887918	     -8.63660366	     33.65238424	     86.94165921	     85.29066119	      7.33246934	     -8.14730692	     32.21256603	     82.46627856	     84.97507671
      3.21666670	     -3.41403850	      2.23829157	     -0.12910585	      1.67666289	      0.87177894	     -0.08542988	     -1.68893361	     -6.01873399	      2.57802863	      0.00000000	      1.49588061	    -22.98273815	      0.00000000	     -2.06968224	     -3.45555727	     -0.98578910	      0.44375962	      4.97095914	     -2.79622430	      0.00000000	     -2.55248847	     -0.04441153	      0.46366009	      7.15918757	     -8.63659696	     33.65356664	     86.94215740	     85.29046370	      7.33252340	     -8.14751227	     32.21306456	     82.46606890	     84.97498248
